# xmcd
#
# Track frame offsets: 
#        183
#        23640
#        41265
#        53930
#
# Disc length: 974 seconds
#
# Revision: 1
# Processed by: cddbd v1.5.2PL0 Copyright (c) Steve Scherf et al.
# Submitted via: ExactAudioCopy v1.3
#
DISCID=2603cc04
DTITLE=Joe Cocker - With a little help from my friends
DYEAR=1988
DGENRE=Blues
TTITLE0=With a little help from my friends
TTITLE1=Delta lady (live)
TTITLE2=Marjorine
TTITLE3=The letter (live)
EXTD=
EXTT0=
EXTT1=
EXTT2=
EXTT3=
PLAYORDER=
